REM DIRINDEX 1\2,1\3,1\4,1\5
REM DIRNAME cjc117,folder01,folder02,folder03,folder04
TITLE ""
FILE "DISC1Track02.mp3" MP3
  TRACK 01 AUDIO
    TITLE "0:"
    INDEX 01 00:00:00
  TRACK 02 AUDIO
    TITLE "2:cjc117_0044"
    INDEX 01 00:00:03
  TRACK 03 AUDIO
    TITLE "0:"
    INDEX 01 00:01:13
  TRACK 04 AUDIO
    TITLE "3:cjc117_0045"
    INDEX 01 00:01:52
  TRACK 05 AUDIO
    TITLE "4:cjc117_0046"
    INDEX 01 00:04:31
  TRACK 06 AUDIO
    TITLE "5:cjc117_0047"
    INDEX 01 00:07:03
  TRACK 07 AUDIO
    TITLE "0:"
    INDEX 01 00:08:56
  TRACK 08 AUDIO
    TITLE "3:cjc117_0048"
    INDEX 01 00:09:16
  TRACK 09 AUDIO
    TITLE "4:cjc117_0049"
    INDEX 01 00:10:41
  TRACK 10 AUDIO
    TITLE "5:cjc117_0050"
    INDEX 01 00:13:06
  TRACK 11 AUDIO
    TITLE "0:"
    INDEX 01 00:14:43
  TRACK 12 AUDIO
    TITLE "3:cjc117_0051"
    INDEX 01 00:15:01
  TRACK 13 AUDIO
    TITLE "4:cjc117_0052"
    INDEX 01 00:17:61
  TRACK 14 AUDIO
    TITLE "5:cjc117_0053"
    INDEX 01 00:21:02
  TRACK 15 AUDIO
    TITLE "0:"
    INDEX 01 00:23:16
  TRACK 16 AUDIO
    TITLE "3:cjc117_0054"
    INDEX 01 00:23:51
  TRACK 17 AUDIO
    TITLE "4:cjc117_0055"
    INDEX 01 00:24:61
  TRACK 18 AUDIO
    TITLE "5:cjc117_0056"
    INDEX 01 00:27:28
  TRACK 19 AUDIO
    TITLE "0:"
    INDEX 01 00:28:68
  TRACK 20 AUDIO
    TITLE "3:cjc117_0057"
    INDEX 01 00:29:29
  TRACK 21 AUDIO
    TITLE "4:cjc117_0058"
    INDEX 01 00:32:13
  TRACK 22 AUDIO
    TITLE "5:cjc117_0059"
    INDEX 01 00:35:12
  TRACK 23 AUDIO
    TITLE "0:"
    INDEX 01 00:37:10
  TRACK 24 AUDIO
    TITLE "3:cjc117_0060"
    INDEX 01 00:37:50
  TRACK 25 AUDIO
    TITLE "4:cjc117_0061"
    INDEX 01 00:40:13
  TRACK 26 AUDIO
    TITLE "5:cjc117_0062"
    INDEX 01 00:42:49
  TRACK 27 AUDIO
    TITLE "0:"
    INDEX 01 00:44:11
  TRACK 28 AUDIO
    TITLE "3:cjc117_0063"
    INDEX 01 00:44:50
  TRACK 29 AUDIO
    TITLE "4:cjc117_0064"
    INDEX 01 00:46:51
  TRACK 30 AUDIO
    TITLE "5:cjc117_0065"
    INDEX 01 00:49:14
  TRACK 31 AUDIO
    TITLE "0:"
    INDEX 01 00:50:52
  TRACK 32 AUDIO
    TITLE "3:cjc117_0066"
    INDEX 01 00:51:13
  TRACK 33 AUDIO
    TITLE "4:cjc117_0067"
    INDEX 01 00:53:53
  TRACK 34 AUDIO
    TITLE "5:cjc117_0068"
    INDEX 01 00:56:29
  TRACK 35 AUDIO
    TITLE "0:"
    INDEX 01 00:58:01
  TRACK 36 AUDIO
    TITLE "3:cjc117_0069"
    INDEX 01 00:58:36
  TRACK 37 AUDIO
    TITLE "4:cjc117_0070"
    INDEX 01 01:00:08
  TRACK 38 AUDIO
    TITLE "5:cjc117_0071"
    INDEX 01 01:02:46
  TRACK 39 AUDIO
    TITLE "0:"
    INDEX 01 01:04:11
  TRACK 40 AUDIO
    TITLE "3:cjc117_0072"
    INDEX 01 01:04:48
  TRACK 41 AUDIO
    TITLE "4:cjc117_0073"
    INDEX 01 01:06:71
  TRACK 42 AUDIO
    TITLE "5:cjc117_0074"
    INDEX 01 01:09:73
  TRACK 43 AUDIO
    TITLE "0:"
    INDEX 01 01:11:74
  TRACK 44 AUDIO
    TITLE "3:cjc117_0075"
    INDEX 01 01:12:38
  TRACK 45 AUDIO
    TITLE "4:cjc117_0076"
    INDEX 01 01:15:23
  TRACK 46 AUDIO
    TITLE "5:cjc117_0077"
    INDEX 01 01:18:31
  TRACK 47 AUDIO
    TITLE "0:"
    INDEX 01 01:20:38
  TRACK 48 AUDIO
    TITLE "3:cjc117_0078"
    INDEX 01 01:21:00
  TRACK 49 AUDIO
    TITLE "4:cjc117_0079"
    INDEX 01 01:22:41
  TRACK 50 AUDIO
    TITLE "5:cjc117_0080"
    INDEX 01 01:25:02
  TRACK 51 AUDIO
    TITLE "0:"
    INDEX 01 01:26:32
  TRACK 52 AUDIO
    TITLE "3:cjc117_0081"
    INDEX 01 01:26:66
  TRACK 53 AUDIO
    TITLE "4:cjc117_0082"
    INDEX 01 01:30:56
  TRACK 54 AUDIO
    TITLE "5:cjc117_0083"
    INDEX 01 01:34:08
  TRACK 55 AUDIO
    TITLE "0:"
    INDEX 01 01:36:41
  TRACK 56 AUDIO
    TITLE "3:cjc117_0084"
    INDEX 01 01:37:01
  TRACK 57 AUDIO
    TITLE "4:cjc117_0085"
    INDEX 01 01:39:63
  TRACK 58 AUDIO
    TITLE "5:cjc117_0086"
    INDEX 01 01:42:69
  TRACK 59 AUDIO
    TITLE "0:"
    INDEX 01 01:45:02
  TRACK 60 AUDIO
    TITLE "3:cjc117_0087"
    INDEX 01 01:45:42
  TRACK 61 AUDIO
    TITLE "4:cjc117_0088"
    INDEX 01 01:47:17
  TRACK 62 AUDIO
    TITLE "5:cjc117_0089"
    INDEX 01 01:49:47
  TRACK 63 AUDIO
    TITLE "0:"
    INDEX 01 01:51:01
  TRACK 64 AUDIO
    TITLE "3:cjc117_0090"
    INDEX 01 01:51:38
  TRACK 65 AUDIO
    TITLE "4:cjc117_0091"
    INDEX 01 01:55:46
  TRACK 66 AUDIO
    TITLE "5:cjc117_0092"
    INDEX 01 02:00:37
  TRACK 67 AUDIO
    TITLE "0:"
    INDEX 01 02:04:25
  TRACK 68 AUDIO
    TITLE "3:cjc117_0093"
    INDEX 01 02:04:64
  TRACK 69 AUDIO
    TITLE "4:cjc117_0094"
    INDEX 01 02:06:10
  TRACK 70 AUDIO
    TITLE "5:cjc117_0095"
    INDEX 01 02:08:47
  TRACK 71 AUDIO
    TITLE "0:"
    INDEX 01 02:10:04
